<?xml version="1.0" encoding="UTF-8"?>
<!-- Simplified BARC mark for use as a favicon / tab icon. -->
<svg xmlns="http://www.w3.org/2000/svg" viewBox="0 0 64 64">
  <rect width="64" height="64" rx="10" fill="#1b2c3a"/>
  <!-- tiny shiba head -->
  <path fill="#c75b2a" d="M10,38 C10,22 22,14 32,14 C42,14 48,22 50,30 L58,32 L50,36 C48,44 40,48 32,48 C20,48 10,46 10,38 Z"/>
  <path fill="#f3e2c4" d="M36,32 C42,31 50,32 56,33 L50,36 C46,36 40,36 36,35 Z"/>
  <circle fill="#1f1a17" cx="40" cy="26" r="2"/>
  <path fill="#1f1a17" d="M16,14 L22,4 L28,16 Z"/>
  <!-- little wave -->
  <path fill="none" stroke="#e8b845" stroke-width="2.5" stroke-linecap="round"
        d="M56,28 q4,4 0,8"/>
</svg>
